<svg xmlns="http://www.w3.org/2000/svg" xmlns:xlink="http://www.w3.org/1999/xlink" width="150" height="40" viewBox="0 0 150 40">
  <defs>
    <clipPath id="clip-path">
      <rect width="150" height="40" fill="none"/>
    </clipPath>
  </defs>
  <g id="Repeat_Grid_1" data-name="Repeat Grid 1" clip-path="url(#clip-path)">
    <g id="Group_2" data-name="Group 2" transform="translate(-172.3 -181.43)">
      <path id="Path_1" data-name="Path 1" d="M194.447,181.43l15.513,24.429h-7.186l-3.37-5.35h-16.53l-3.406,5.35H172.3l15.514-24.429Zm-8.292,13.909h9.95l-4.957-7.846Z" transform="translate(0)" fill="#002d7c"/>
      <path id="Path_2" data-name="Path 2" d="M264.425,181.43a8.7,8.7,0,0,1,6.062,2.283,7.176,7.176,0,0,1,2.514,5.51,7.1,7.1,0,0,1-2.176,5.171,8.954,8.954,0,0,1-5.42,2.514l7.953,8.952H265.6L258.256,197H247.11v8.862h-6.669V181.43ZM247.11,191.612l16.673.018a2.569,2.569,0,0,0,1.873-.678,2.189,2.189,0,0,0,.731-1.712,2.093,2.093,0,0,0-.731-1.712,2.337,2.337,0,0,0-1.873-.66H247.11Z" transform="translate(-28.341)" fill="#002d7c"/>
      <path id="Path_3" data-name="Path 3" d="M328.7,181.43a7.946,7.946,0,0,1,5.563,2.086,6.51,6.51,0,0,1,2.283,5.046v1.569H329.88v-.41a2.593,2.593,0,0,0-.909-2.033,2.882,2.882,0,0,0-2.229-.821H312.1a3.147,3.147,0,0,0-2.229.838,2.541,2.541,0,0,0-.909,2.015v7.846a2.677,2.677,0,0,0,.927,2.033,3.342,3.342,0,0,0,2.211.821h14.64a3.471,3.471,0,0,0,2.229-.838,2.681,2.681,0,0,0,.909-2.015v-.374h6.669v1.533a6.51,6.51,0,0,1-2.283,5.046,7.946,7.946,0,0,1-5.563,2.086H310.14a7.986,7.986,0,0,1-5.563-2.086,6.589,6.589,0,0,1-2.283-5.046V188.563a6.568,6.568,0,0,1,2.3-5.046,7.962,7.962,0,0,1,5.545-2.086Z" transform="translate(-54.067)" fill="#002d7c"/>
      <path id="Path_4" data-name="Path 4" d="M386.782,181.43,402.3,205.859h-7.186l-3.37-5.35h-16.53l-3.406,5.35h-7.168l15.514-24.429Zm-8.292,13.909h9.95l-4.957-7.846Z" transform="translate(-79.995)" fill="#002d7c"/>
      <g id="Group_1" data-name="Group 1" transform="translate(212.1 212.056)">
        <path id="Path_5" data-name="Path 5" d="M253.4,232.766v2.281h-9.154a1.034,1.034,0,0,0-.737.274.857.857,0,0,0-.3.666v2.931a.879.879,0,0,0,.306.666,1.221,1.221,0,0,0,.729.274h6.709v-1.168H247.84v-2.179h5.878v5.627h-10.2a3.151,3.151,0,0,1-2.179-.815,2.567,2.567,0,0,1-.894-1.967v-3.8a2.676,2.676,0,0,1,.9-1.975,3.16,3.16,0,0,1,2.171-.815Z" transform="translate(-240.441 -232.766)" fill="#33adff"/>
        <path id="Path_6" data-name="Path 6" d="M274.7,232.766a3.362,3.362,0,0,1,2.359.885,2.826,2.826,0,0,1,.2,4.084,3.466,3.466,0,0,1-1.944,1.027l3,3.378h-3.253l-2.751-3.308h-3.958v3.308h-2.767v-9.374Zm-6.341,3.809h6.1a.828.828,0,0,0,.611-.211.8.8,0,0,0,0-1.113.8.8,0,0,0-.611-.2h-6.1Z" transform="translate(-250.9 -232.766)" fill="#33adff"/>
        <path id="Path_7" data-name="Path 7" d="M300,232.766a3.117,3.117,0,0,1,2.179.815,2.477,2.477,0,0,1,.894,1.975v3.8a2.516,2.516,0,0,1-.9,1.975,3.086,3.086,0,0,1-2.17.807h-7.14a3.159,3.159,0,0,1-2.171-.815,2.567,2.567,0,0,1-.894-1.967v-3.8a2.678,2.678,0,0,1,.9-1.975,3.153,3.153,0,0,1,2.163-.815Zm-7.14,2.555a.857.857,0,0,0-.3.666v2.931a.879.879,0,0,0,.306.666,1.221,1.221,0,0,0,.728.274h5.675a1.183,1.183,0,0,0,.737-.274.853.853,0,0,0,.3-.666v-2.931a.849.849,0,0,0-.305-.666.991.991,0,0,0-.729-.274H293.6A1.033,1.033,0,0,0,292.86,235.321Z" transform="translate(-260.968 -232.766)" fill="#33adff"/>
        <path id="Path_8" data-name="Path 8" d="M317.749,232.766v6.153a.881.881,0,0,0,.305.666,1.223,1.223,0,0,0,.729.274h5.087a1.207,1.207,0,0,0,.737-.274.821.821,0,0,0,.3-.666v-6.153h2.774v6.584a2.511,2.511,0,0,1-.9,1.975,3.068,3.068,0,0,1-2.171.815h-6.552a3.151,3.151,0,0,1-2.179-.815,2.591,2.591,0,0,1-.894-1.975v-6.584Z" transform="translate(-271.444 -232.766)" fill="#33adff"/>
        <path id="Path_9" data-name="Path 9" d="M348.3,232.766a3.63,3.63,0,0,1,2.531.956,3.062,3.062,0,0,1,0,4.617,3.626,3.626,0,0,1-2.531.949h-6.38v2.853h-2.759v-9.374Zm-6.38,4.256h6.145a1.315,1.315,0,0,0,.792-.275.928.928,0,0,0,.305-.713.9.9,0,0,0-.305-.713,1.092,1.092,0,0,0-.792-.274h-6.145Z" transform="translate(-281.501 -232.766)" fill="#33adff"/>
      </g>
      <rect id="Rectangle_2" data-name="Rectangle 2" width="30.543" height="3.268" transform="translate(172.3 215.109)" fill="#33adff"/>
      <rect id="Rectangle_3" data-name="Rectangle 3" width="30.543" height="3.268" transform="translate(291.757 215.109)" fill="#33adff"/>
    </g>
  </g>
</svg>
